<svg width="36" height="36" viewBox="0 0 36 36" fill="none" xmlns="http://www.w3.org/2000/svg">
<circle cx="18" cy="18" r="18" fill="white"/>
<path d="M18.1689 17.5236C18.3512 17.7163 18.648 17.7163 18.8329 17.5236L21.6687 14.5498C22.4916 13.6853 22.4447 12.2531 21.5229 11.4563C20.7208 10.761 19.5256 10.886 18.7912 11.6568L18.4996 11.9614L18.2105 11.6594C17.4762 10.886 16.281 10.761 15.4789 11.4563C14.5597 12.2531 14.5102 13.6853 15.3331 14.5498L18.1689 17.5236ZM25.7205 19.5444C25.4133 19.2657 24.9341 19.284 24.6112 19.5444L22.2051 21.4687C21.9109 21.7057 21.5437 21.8333 21.1635 21.8333H18.0829C17.8538 21.8333 17.6663 21.6458 17.6663 21.4167C17.6663 21.1875 17.8538 21 18.0829 21H20.1219C20.5359 21 20.9213 20.7162 20.989 20.3073C21.075 19.7865 20.6739 19.3334 20.1662 19.3334H15.9997C15.2966 19.3334 14.617 19.5756 14.0701 20.0183L12.8593 21H11.4166C11.1875 21 11 21.1875 11 21.4167V23.9165C11 24.1457 11.1875 24.3332 11.4166 24.3332H20.7078C21.0854 24.3332 21.4525 24.2056 21.7494 23.9686L25.6867 20.8177C26.0825 20.5026 26.1137 19.8985 25.7205 19.5444Z" fill="black"/>
</svg>
