<svg width="36" height="36" viewBox="0 0 36 36" fill="none" xmlns="http://www.w3.org/2000/svg">
<circle cx="18" cy="18" r="18" fill="white"/>
<path d="M16.5812 9.17702C12.8924 9.85906 9.91988 12.6681 9.19252 16.1521C7.81944 22.7264 14.0799 27.6273 18.7967 26.9347C20.3256 26.7097 21.0752 25.0152 20.3738 23.7108C19.5166 22.1147 20.7412 20.2514 22.6339 20.2514H25.5915C26.9201 20.2514 27.9963 19.2108 28 17.9557C27.9814 12.415 22.6598 8.05551 16.5812 9.17702ZM12.5621 20.2514C11.9053 20.2514 11.3746 19.7487 11.3746 19.1264C11.3746 18.5041 11.9053 18.0014 12.5621 18.0014C13.219 18.0014 13.7497 18.5041 13.7497 19.1264C13.7497 19.7487 13.219 20.2514 12.5621 20.2514ZM13.7497 15.7513C13.0928 15.7513 12.5621 15.2486 12.5621 14.6263C12.5621 14.004 13.0928 13.5013 13.7497 13.5013C14.4065 13.5013 14.9372 14.004 14.9372 14.6263C14.9372 15.2486 14.4065 15.7513 13.7497 15.7513ZM18.4998 13.5013C17.8429 13.5013 17.3122 12.9986 17.3122 12.3763C17.3122 11.754 17.8429 11.2513 18.4998 11.2513C19.1566 11.2513 19.6873 11.754 19.6873 12.3763C19.6873 12.9986 19.1566 13.5013 18.4998 13.5013ZM23.2499 15.7513C22.593 15.7513 22.0624 15.2486 22.0624 14.6263C22.0624 14.004 22.593 13.5013 23.2499 13.5013C23.9067 13.5013 24.4374 14.004 24.4374 14.6263C24.4374 15.2486 23.9067 15.7513 23.2499 15.7513Z" fill="black"/>
</svg>
