<svg width="44" height="43" viewBox="0 0 44 43" fill="none" xmlns="http://www.w3.org/2000/svg">
<circle cx="21.75" cy="21.5" r="21.5" fill="white"/>
<path d="M21.75 23.0625C25.6318 23.0625 28.7812 19.9131 28.7812 16.0312C28.7812 12.1494 25.6318 9 21.75 9C17.8682 9 14.7188 12.1494 14.7188 16.0312C14.7188 19.9131 17.8682 23.0625 21.75 23.0625ZM28 24.625H25.3096C24.2256 25.123 23.0195 25.4062 21.75 25.4062C20.4805 25.4062 19.2793 25.123 18.1904 24.625H15.5C12.0479 24.625 9.25 27.4229 9.25 30.875V31.6562C9.25 32.9502 10.2998 34 11.5938 34H31.9062C33.2002 34 34.25 32.9502 34.25 31.6562V30.875C34.25 27.4229 31.4521 24.625 28 24.625Z" fill="black"/>
</svg>
