<svg width="21" height="17" viewBox="0 0 21 17" fill="none" xmlns="http://www.w3.org/2000/svg">
<path d="M20.5291 1.96499C19.776 2.2996 18.9792 2.5217 18.1635 2.62438C19.0227 2.10503 19.6649 1.28404 19.9688 0.316517C19.1639 0.803404 18.2824 1.14565 17.3631 1.32819C16.8001 0.714583 16.0682 0.2875 15.2627 0.102634C14.4573 -0.0822309 13.6157 -0.0162983 12.8477 0.291825C12.0796 0.599948 11.4208 1.13596 10.9572 1.82998C10.4935 2.524 10.2465 3.34382 10.2484 4.18252C10.245 4.50269 10.2764 4.82226 10.3418 5.13548C8.71051 5.05104 7.11501 4.61849 5.65931 3.866C4.2036 3.11351 2.92035 2.05798 1.89309 0.768153C1.36292 1.68593 1.19832 2.77489 1.43311 3.81191C1.66791 4.84893 2.2843 5.7555 3.15593 6.34587C2.50474 6.32768 1.86731 6.15112 1.2972 5.831V5.87616C1.29735 6.84058 1.62531 7.77538 2.22567 8.52257C2.82603 9.26975 3.66197 9.78351 4.5922 9.97702C4.23984 10.0727 3.87642 10.1198 3.51169 10.117C3.25053 10.1205 2.98973 10.0963 2.73352 10.0448C2.99965 10.8733 3.51185 11.5977 4.19981 12.1185C4.88776 12.6394 5.71765 12.931 6.5754 12.9533C5.12014 14.1079 3.32616 14.7344 1.47953 14.7328C1.15107 14.7339 0.822887 14.7142 0.496826 14.674C2.37468 15.9041 4.56322 16.5551 6.79774 16.5483C14.3571 16.5483 18.4925 10.1848 18.4925 4.67029C18.4925 4.48964 18.4925 4.30898 18.4925 4.13284C19.2952 3.54168 19.9853 2.8071 20.5291 1.96499V1.96499Z" fill="white"/>
</svg>
