<svg width="22" height="23" viewBox="0 0 22 23" fill="none" xmlns="http://www.w3.org/2000/svg">
<path d="M20.375 9.15625H13.3438V2.125C13.3438 1.26221 12.644 0.5625 11.7812 0.5625H10.2188C9.35596 0.5625 8.65625 1.26221 8.65625 2.125V9.15625H1.625C0.762207 9.15625 0.0625 9.85596 0.0625 10.7188V12.2812C0.0625 13.144 0.762207 13.8438 1.625 13.8438H8.65625V20.875C8.65625 21.7378 9.35596 22.4375 10.2188 22.4375H11.7812C12.644 22.4375 13.3438 21.7378 13.3438 20.875V13.8438H20.375C21.2378 13.8438 21.9375 13.144 21.9375 12.2812V10.7188C21.9375 9.85596 21.2378 9.15625 20.375 9.15625Z" fill="black"/>
</svg>