<svg width="44" height="44" viewBox="0 0 44 44" fill="none" xmlns="http://www.w3.org/2000/svg">
<path d="M41.5212 20.7608C41.5212 32.2267 32.2263 41.5217 20.7604 41.5217C9.29446 41.5217 -0.000488281 32.2267 -0.000488281 20.7608C-0.000488281 9.29495 9.29446 0 20.7604 0C32.2263 0 41.5212 9.29495 41.5212 20.7608Z" fill="#FF0000"/>
<path d="M22.0576 14.6757L29.9566 22.8313C30.5026 23.395 30.5026 24.3065 29.9566 24.8642L28.644 26.2195C28.098 26.7832 27.2152 26.7832 26.6751 26.2195L21.0702 20.4446L15.4712 26.2255C14.9252 26.7892 14.0424 26.7892 13.5022 26.2255L12.1838 24.8702C11.6378 24.3065 11.6378 23.395 12.1838 22.8373L20.0828 14.6817C20.6288 14.112 21.5116 14.112 22.0576 14.6757V14.6757Z" fill="#FF0000"/>
<path d="M44.0002 23.2394C44.0002 34.7053 34.7053 44.0002 23.2394 44.0002C11.7735 44.0002 2.47852 34.7053 2.47852 23.2394C2.47852 11.7735 11.7735 2.47852 23.2394 2.47852C34.7053 2.47852 44.0002 11.7735 44.0002 23.2394Z" fill="#32F991"/>
<path d="M24.5366 17.1543L32.4356 25.3098C32.9816 25.8735 32.9816 26.785 32.4356 27.3427L31.123 28.698C30.577 29.2617 29.6942 29.2617 29.1541 28.698L23.5492 22.9231L17.9502 28.704C17.4042 29.2677 16.5214 29.2677 15.9812 28.704L14.6628 27.3487C14.1168 26.785 14.1168 25.8735 14.6628 25.3158L22.5618 17.1602C23.1078 16.5906 23.9906 16.5906 24.5366 17.1543V17.1543Z" fill="#32F991"/>
<path d="M42.7607 22.0001C42.7607 33.466 33.4658 42.7609 21.9999 42.7609C10.534 42.7609 1.23901 33.466 1.23901 22.0001C1.23901 10.5342 10.534 1.23926 21.9999 1.23926C33.4658 1.23926 42.7607 10.5342 42.7607 22.0001Z" fill="#F8F8F8"/>
<path d="M23.2971 15.915L31.1961 24.0706C31.7421 24.6343 31.7421 25.5458 31.1961 26.1035L29.8835 27.4587C29.3375 28.0224 28.4547 28.0224 27.9146 27.4587L22.3097 21.6839L16.7107 27.4647C16.1647 28.0284 15.2819 28.0284 14.7417 27.4647L13.4233 26.1095C12.8773 25.5458 12.8773 24.6343 13.4233 24.0766L21.3223 15.921C21.8683 15.3513 22.7511 15.3513 23.2971 15.915V15.915Z" fill="#F8F8F8"/>
<path d="M23.297 15.9152L31.196 24.0708C31.742 24.6345 31.742 25.546 31.196 26.1037L29.8834 27.4589C29.3374 28.0226 28.4546 28.0226 27.9144 27.4589L22.3096 21.6841L16.7105 27.4649C16.1646 28.0286 15.2817 28.0286 14.7416 27.4649L13.4231 26.1097C12.8772 25.546 12.8772 24.6345 13.4231 24.0768L21.3222 15.9212C21.8682 15.3515 22.751 15.3515 23.297 15.9152V15.9152Z" fill="black"/>
</svg>
