<svg width="36" height="36" viewBox="0 0 36 36" fill="none" xmlns="http://www.w3.org/2000/svg">
<path d="M18.2989 0.226746C28.0289 0.226746 35.9123 8.11015 35.9123 17.8401C35.9123 27.5701 28.0289 35.4535 18.2989 35.4535C8.56895 35.4535 0.685547 27.5701 0.685547 17.8401C0.685547 8.11015 8.56895 0.226746 18.2989 0.226746ZM10.0604 20.9651H12.12V21.4593H14.1797V20.9651H16.2393V20.4942H17.784V20.9651H18.2989V26.0005C18.2989 26.7604 19.2222 27.144 19.7549 26.6042L27.8726 18.4438C28.2064 18.11 28.2064 17.5773 27.8726 17.2435L26.8579 16.2226L25.8432 15.2017L24.8285 14.1807L24.3211 13.6703L24.0674 13.415L23.8483 13.4971L23.1245 12.7733L23.3064 12.6493L22.799 12.1389L21.7843 11.1179L21.9181 10.843L20.953 9.87791L20.7696 10.097L19.7549 9.07605C19.2151 8.53628 18.2989 8.9198 18.2989 9.67973V14.7152H10.0604C9.59166 14.7152 9.20815 15.0987 9.20815 15.5674V20.1128C9.20815 20.5816 9.59166 20.9651 10.0604 20.9651Z" fill="white"/>
</svg>