<svg width="36" height="36" viewBox="0 0 36 36" fill="none" xmlns="http://www.w3.org/2000/svg">
<path d="M18.0722 35.2267C8.34221 35.2267 0.458802 27.3433 0.458803 17.6134C0.458804 7.8834 8.34221 -2.39043e-06 18.0722 -1.53981e-06C27.8021 -6.89189e-07 35.6855 7.88341 35.6855 17.6134C35.6855 27.3433 27.8021 35.2267 18.0722 35.2267ZM26.3107 14.4884L24.2511 14.4884L24.2511 13.9942L22.1914 13.9942L22.1914 14.4884L20.1318 14.4884L20.1318 14.9593L18.5871 14.9593L18.5871 14.4884L18.0722 14.4884L18.0722 9.45298C18.0722 8.69305 17.1489 8.30953 16.6162 8.8493L8.49846 17.0097C8.16466 17.3435 8.16466 17.8761 8.49846 18.21L9.51318 19.2309L10.5279 20.2518L11.5426 21.2728L12.05 21.7832L12.3037 22.0385L12.5228 21.9564L13.2466 22.6802L13.0647 22.8042L13.5721 23.3146L14.5868 24.3356L14.453 24.6105L15.4181 25.5756L15.6015 25.3565L16.6162 26.3774C17.156 26.9172 18.0722 26.5337 18.0722 25.7738L18.0722 20.7383L26.3107 20.7383C26.7794 20.7383 27.1629 20.3548 27.1629 19.8861L27.1629 15.3407C27.1629 14.8719 26.7794 14.4884 26.3107 14.4884Z" fill="white"/>
</svg>