<svg width="25" height="17" viewBox="0 0 25 17" fill="none" xmlns="http://www.w3.org/2000/svg">
<path d="M24.0115 2.58627C23.8778 2.08787 23.6164 1.63346 23.2533 1.26845C22.8902 0.903445 22.4382 0.64061 21.9424 0.50621C20.1113 2.7978e-06 12.7411 0 12.7411 0C12.7411 0 5.38 1.42633e-06 3.53973 0.483199C3.04388 0.625938 2.59276 0.89428 2.22966 1.26252C1.86655 1.63076 1.60361 2.08657 1.46598 2.58627C0.98074 4.42702 0.980713 8.2742 0.980713 8.2742C0.980713 8.2742 0.98074 12.1306 1.46598 13.9575C1.60064 14.4567 1.8629 14.9117 2.22669 15.2775C2.59049 15.6432 3.04318 15.9068 3.53973 16.0422C5.39831 16.5484 12.7411 16.5484 12.7411 16.5484C12.7411 16.5484 20.1021 16.5484 21.9424 16.0606C22.4382 15.9262 22.8902 15.6634 23.2533 15.2983C23.6164 14.9333 23.8778 14.4789 24.0115 13.9805C24.4968 12.1398 24.4968 8.2926 24.4968 8.2926C24.4968 8.2926 24.5151 4.43622 24.0115 2.58627ZM10.3972 11.8176V4.73074L16.5177 8.2742L10.3972 11.8176Z" fill="white"/>
</svg>
