<svg width="19" height="26" viewBox="0 0 19 26" fill="none" xmlns="http://www.w3.org/2000/svg">
<path d="M11.0721 6.72236V0H1.1863C0.528891 0 0 0.528891 0 1.1863V24.1214C0 24.7788 0.528891 25.3077 1.1863 25.3077H17.7945C18.4519 25.3077 18.9808 24.7788 18.9808 24.1214V7.90865H12.2584C11.606 7.90865 11.0721 7.37482 11.0721 6.72236ZM14.851 17.1697L10.085 21.9001C9.75631 22.2268 9.22545 22.2268 8.89674 21.9001L4.13079 17.1697C3.62908 16.6719 3.98102 15.8173 4.68687 15.8173H7.90865V11.863C7.90865 11.426 8.26257 11.0721 8.69952 11.0721H10.2813C10.7182 11.0721 11.0721 11.426 11.0721 11.863V15.8173H14.2939C14.9998 15.8173 15.3517 16.6719 14.851 17.1697ZM18.6348 5.19005L13.7957 0.346004C13.5732 0.123573 13.2717 0 12.9554 0H12.6538V6.32692H18.9808V6.02541C18.9808 5.714 18.8572 5.41248 18.6348 5.19005Z" fill="white"/>
</svg>
