<svg width="13" height="18" viewBox="0 0 13 18" fill="none" xmlns="http://www.w3.org/2000/svg">
<path d="M2.92188 10.2188H2.65625V8.625H2.92188C3.35352 8.625 3.71875 8.99023 3.71875 9.42188C3.71875 9.88672 3.35352 10.2188 2.92188 10.2188ZM6.375 8.625H6.64062C6.90625 8.625 7.17188 8.89062 7.17188 9.15625V11.2812C7.17188 11.5801 6.90625 11.8125 6.64062 11.8125H6.375V8.625ZM7.4375 0.125V4.375C7.4375 4.97266 7.90234 5.4375 8.5 5.4375H12.75V15C12.75 16.1953 11.7871 17.125 10.625 17.125H2.125C0.929688 17.125 0 16.1953 0 15V2.25C0 1.08789 0.929688 0.125 2.125 0.125H7.4375ZM2.125 7.5625C1.82617 7.5625 1.59375 7.82812 1.59375 8.09375V12.3438C1.59375 12.6426 1.82617 12.875 2.125 12.875C2.39062 12.875 2.65625 12.6426 2.65625 12.3438V11.2812H2.92188C3.91797 11.2812 4.78125 10.4512 4.78125 9.42188C4.78125 8.42578 3.91797 7.5625 2.92188 7.5625H2.125ZM5.3125 12.3438C5.3125 12.6426 5.54492 12.875 5.84375 12.875H6.64062C7.50391 12.875 8.23438 12.1777 8.23438 11.2812V9.15625C8.23438 8.29297 7.50391 7.5625 6.64062 7.5625H5.84375C5.54492 7.5625 5.3125 7.82812 5.3125 8.09375V12.3438ZM9.5625 7.5625C9.26367 7.5625 9.03125 7.82812 9.03125 8.09375V12.3438C9.03125 12.6426 9.26367 12.875 9.5625 12.875C9.82812 12.875 10.0938 12.6426 10.0938 12.3438V10.75H11.1562C11.4219 10.75 11.6875 10.5176 11.6875 10.2188C11.6875 9.95312 11.4219 9.6875 11.1562 9.6875H10.0938V8.625H11.1562C11.4219 8.625 11.6875 8.39258 11.6875 8.09375C11.6875 7.82812 11.4219 7.5625 11.1562 7.5625H9.5625ZM8.5 0.125L12.75 4.375H8.5V0.125Z" fill="#CC4356"/>
</svg>
