<svg width="20" height="20" viewBox="0 0 20 20" fill="none" xmlns="http://www.w3.org/2000/svg">
<path d="M19.7749 5.67425C19.7562 4.87467 19.6012 4.08415 19.3165 3.33672C19.0726 2.69333 18.6928 2.11018 18.2028 1.6271C17.7204 1.13743 17.137 0.758904 16.4932 0.51792C15.7458 0.2333 14.9552 0.0782959 14.1556 0.0595795C13.1244 0.00916205 12.7806 0 10.1773 0C7.57388 0 7.2347 -2.23676e-06 6.20802 0.0549986C5.4069 0.0732846 4.61481 0.228294 3.8659 0.513339C3.22078 0.753783 2.63693 1.13415 2.1563 1.6271C1.66685 2.10791 1.28828 2.68981 1.0471 3.33213C0.762999 4.07971 0.608012 4.87015 0.588761 5.66967C0.538344 6.70551 0.529175 7.04468 0.529175 9.64805C0.529175 12.2514 0.529173 12.5952 0.584173 13.6219C0.602441 14.4215 0.75746 15.2121 1.04251 15.9594C1.28364 16.6042 1.66394 17.1879 2.1563 17.669C2.63805 18.1584 3.21957 18.5383 3.86132 18.7828C4.61045 19.067 5.4024 19.222 6.20343 19.2411C7.23011 19.2869 7.57847 19.3007 10.1773 19.3007C12.776 19.3007 13.1198 19.3007 14.1465 19.2411C14.9476 19.2226 15.7396 19.0676 16.4886 18.7828C17.1289 18.534 17.7103 18.1544 18.1956 17.6683C18.681 17.1821 19.0596 16.6001 19.3074 15.9594C19.592 15.212 19.747 14.4214 19.7657 13.6219C19.8115 12.5952 19.8207 12.2468 19.8207 9.64805C19.8207 7.04927 19.8161 6.71468 19.7749 5.67425ZM18.0378 13.5485C18.0315 14.1593 17.9182 14.7643 17.7032 15.3361C17.5434 15.7533 17.2977 16.1321 16.9818 16.448C16.6659 16.7639 16.287 17.0097 15.8698 17.1694C15.2979 17.3839 14.6931 17.4972 14.0823 17.504C13.0648 17.5453 12.7577 17.559 10.1864 17.559C7.61514 17.559 7.30806 17.559 6.29513 17.504C5.6828 17.4981 5.07623 17.3848 4.503 17.1694C4.08454 17.0173 3.7066 16.7711 3.39839 16.4498C3.07953 16.1396 2.83374 15.7623 2.67882 15.3452C2.46615 14.7714 2.35445 14.1651 2.34877 13.5531C2.30294 12.5402 2.28919 12.2331 2.28919 9.6618C2.28919 7.09052 2.28919 6.77884 2.34877 5.76591C2.35424 5.15544 2.46595 4.55057 2.67882 3.97839C2.83349 3.55879 3.08104 3.1796 3.40298 2.86921C3.71437 2.55175 4.09137 2.30615 4.50759 2.14961C5.08055 1.93955 5.68494 1.82798 6.29513 1.81961C7.31264 1.77378 7.61973 1.76461 10.191 1.76461C12.7623 1.76461 13.074 1.76461 14.0869 1.81961C14.6972 1.82745 15.3016 1.93903 15.8744 2.14961C16.292 2.30609 16.6705 2.55165 16.9836 2.86921C17.3003 3.18209 17.5444 3.56075 17.6986 3.97839C17.9132 4.55027 18.0264 5.15516 18.0332 5.76591C18.079 6.78343 18.0882 7.09052 18.0882 9.6618C18.0882 12.2331 18.0836 12.531 18.0378 13.5485V13.5485Z" fill="white"/>
<path d="M10.186 4.69873C9.20586 4.69873 8.24771 4.98943 7.43282 5.53406C6.61793 6.07869 5.98289 6.85277 5.60802 7.75838C5.23315 8.664 5.13532 9.66045 5.32687 10.6217C5.51842 11.5829 5.99072 12.4657 6.6841 13.1585C7.37748 13.8512 8.26079 14.3227 9.2222 14.5134C10.1836 14.7041 11.1799 14.6053 12.0852 14.2296C12.9905 13.8539 13.764 13.2181 14.3079 12.4027C14.8517 11.5873 15.1415 10.6289 15.1406 9.6488C15.1394 8.33554 14.6169 7.07648 13.6878 6.14829C12.7588 5.2201 11.4993 4.69873 10.186 4.69873ZM10.186 12.8618C9.55143 12.8618 8.93111 12.6736 8.40349 12.3211C7.87587 11.9685 7.46467 11.4674 7.22183 10.8812C6.979 10.2949 6.91542 9.64983 7.03921 9.02746C7.16301 8.4051 7.46859 7.83342 7.91729 7.38472C8.36599 6.93602 8.93766 6.63045 9.56003 6.50665C10.1824 6.38286 10.8275 6.44639 11.4138 6.68923C12 6.93206 12.5011 7.34329 12.8536 7.8709C13.2062 8.39852 13.3944 9.01883 13.3944 9.65339C13.3944 10.0747 13.3114 10.4919 13.1502 10.8812C12.9889 11.2704 12.7526 11.6241 12.4546 11.922C12.1567 12.22 11.803 12.4563 11.4138 12.6175C11.0245 12.7788 10.6073 12.8618 10.186 12.8618V12.8618Z" fill="white"/>
<path d="M16.4932 4.50122C16.4941 4.73095 16.4267 4.95578 16.2997 5.14718C16.1726 5.33858 15.9915 5.48792 15.7794 5.57625C15.5674 5.66459 15.3338 5.68793 15.1085 5.64334C14.8831 5.59874 14.6761 5.48821 14.5136 5.32576C14.3512 5.16331 14.2406 4.95627 14.196 4.7309C14.1514 4.50553 14.1748 4.272 14.2631 4.05992C14.3515 3.84785 14.5008 3.66679 14.6922 3.53972C14.8836 3.41265 15.1084 3.34529 15.3382 3.3462C15.4898 3.3462 15.64 3.37608 15.7802 3.43413C15.9203 3.49217 16.0476 3.57725 16.1549 3.6845C16.2621 3.79175 16.3472 3.91908 16.4052 4.05922C16.4633 4.19935 16.4932 4.34954 16.4932 4.50122V4.50122Z" fill="white"/>
</svg>
