<svg width="36" height="36" viewBox="0 0 36 36" fill="none" xmlns="http://www.w3.org/2000/svg">
<circle cx="18" cy="18" r="18" fill="white"/>
<path d="M10.5879 25.1684C10.5879 26.0818 11.3289 26.8228 12.2423 26.8228H24.3747C25.288 26.8228 26.0291 26.0818 26.0291 25.1684V15.7934H10.5879V25.1684ZM21.6173 18.4129C21.6173 18.1854 21.8034 17.9993 22.0309 17.9993H23.4096C23.6371 17.9993 23.8232 18.1854 23.8232 18.4129V19.7916C23.8232 20.0191 23.6371 20.2052 23.4096 20.2052H22.0309C21.8034 20.2052 21.6173 20.0191 21.6173 19.7916V18.4129ZM21.6173 22.8247C21.6173 22.5972 21.8034 22.4111 22.0309 22.4111H23.4096C23.6371 22.4111 23.8232 22.5972 23.8232 22.8247V24.2034C23.8232 24.4308 23.6371 24.617 23.4096 24.617H22.0309C21.8034 24.617 21.6173 24.4308 21.6173 24.2034V22.8247ZM17.2055 18.4129C17.2055 18.1854 17.3917 17.9993 17.6191 17.9993H18.9978C19.2253 17.9993 19.4114 18.1854 19.4114 18.4129V19.7916C19.4114 20.0191 19.2253 20.2052 18.9978 20.2052H17.6191C17.3917 20.2052 17.2055 20.0191 17.2055 19.7916V18.4129ZM17.2055 22.8247C17.2055 22.5972 17.3917 22.4111 17.6191 22.4111H18.9978C19.2253 22.4111 19.4114 22.5972 19.4114 22.8247V24.2034C19.4114 24.4308 19.2253 24.617 18.9978 24.617H17.6191C17.3917 24.617 17.2055 24.4308 17.2055 24.2034V22.8247ZM12.7938 18.4129C12.7938 18.1854 12.9799 17.9993 13.2074 17.9993H14.5861C14.8135 17.9993 14.9997 18.1854 14.9997 18.4129V19.7916C14.9997 20.0191 14.8135 20.2052 14.5861 20.2052H13.2074C12.9799 20.2052 12.7938 20.0191 12.7938 19.7916V18.4129ZM12.7938 22.8247C12.7938 22.5972 12.9799 22.4111 13.2074 22.4111H14.5861C14.8135 22.4111 14.9997 22.5972 14.9997 22.8247V24.2034C14.9997 24.4308 14.8135 24.617 14.5861 24.617H13.2074C12.9799 24.617 12.7938 24.4308 12.7938 24.2034V22.8247ZM24.3747 11.3817H22.7202V9.72725C22.7202 9.42394 22.4721 9.17578 22.1688 9.17578H21.0658C20.7625 9.17578 20.5144 9.42394 20.5144 9.72725V11.3817H16.1026V9.72725C16.1026 9.42394 15.8544 9.17578 15.5511 9.17578H14.4482C14.1449 9.17578 13.8967 9.42394 13.8967 9.72725V11.3817H12.2423C11.3289 11.3817 10.5879 12.1227 10.5879 13.0361V14.6905H26.0291V13.0361C26.0291 12.1227 25.288 11.3817 24.3747 11.3817Z" fill="black"/>
</svg>
