<svg width="36" height="36" viewBox="0 0 36 36" fill="none" xmlns="http://www.w3.org/2000/svg">
<circle cx="18" cy="18" r="18" fill="white"/>
<path d="M27 18C27 22.9717 22.9702 27 18 27C13.0298 27 9 22.9717 9 18C9 13.0312 13.0298 9 18 9C22.9702 9 27 13.0312 27 18ZM18 19.8145C17.078 19.8145 16.3306 20.5619 16.3306 21.4839C16.3306 22.4058 17.078 23.1532 18 23.1532C18.922 23.1532 19.6694 22.4058 19.6694 21.4839C19.6694 20.5619 18.922 19.8145 18 19.8145ZM16.4151 13.8141L16.6843 18.7495C16.6969 18.9805 16.8878 19.1613 17.1191 19.1613H18.8809C19.1122 19.1613 19.3031 18.9805 19.3157 18.7495L19.5849 13.8141C19.5985 13.5646 19.3999 13.3548 19.1501 13.3548H16.8499C16.6001 13.3548 16.4015 13.5646 16.4151 13.8141Z" fill="black"/>
</svg>