<svg width="36" height="36" viewBox="0 0 36 36" fill="none" xmlns="http://www.w3.org/2000/svg">
<circle cx="18" cy="18" r="18" fill="white"/>
<path d="M24.5292 13.0361V25.1684C24.5292 26.0821 23.7885 26.8228 22.8748 26.8228H12.9484C12.0346 26.8228 11.2939 26.0821 11.2939 25.1684V13.0361C11.2939 12.1224 12.0346 11.3817 12.9484 11.3817H15.7057C15.7057 10.1653 16.6953 9.17578 17.9116 9.17578C19.1279 9.17578 20.1175 10.1653 20.1175 11.3817H22.8748C23.7885 11.3817 24.5292 12.1224 24.5292 13.0361ZM17.9116 10.5545C17.4547 10.5545 17.0844 10.9248 17.0844 11.3817C17.0844 11.8385 17.4547 12.2089 17.9116 12.2089C18.3685 12.2089 18.7388 11.8385 18.7388 11.3817C18.7388 10.9248 18.3685 10.5545 17.9116 10.5545ZM21.2204 14.4837V13.7943C21.2204 13.7395 21.1986 13.6869 21.1598 13.6481C21.1211 13.6093 21.0685 13.5875 21.0136 13.5875H14.8096C14.7547 13.5875 14.7021 13.6093 14.6633 13.6481C14.6246 13.6869 14.6028 13.7395 14.6028 13.7943V14.4837C14.6028 14.5385 14.6246 14.5911 14.6633 14.6299C14.7021 14.6687 14.7547 14.6905 14.8096 14.6905H21.0136C21.0685 14.6905 21.1211 14.6687 21.1598 14.6299C21.1986 14.5911 21.2204 14.5385 21.2204 14.4837Z" fill="black"/>
</svg>
